<svg id="critical" xmlns="http://www.w3.org/2000/svg" width="233" height="71" viewBox="0 0 233 71">
  <defs>
    <style>
      .cls-1 {
        fill: #e95069;
      }

      .cls-2 {
        fill: #f6f9fe;
        fill-rule: evenodd;
      }
    </style>
  </defs>
  <rect id="Rounded_Rectangle_1_copy" data-name="Rounded Rectangle 1 copy" class="cls-1" width="233" height="71" rx="12.639" ry="12.639"/>
  <path id="critical-2" data-name="critical" class="cls-2" d="M112.45,56.059Q112,59.55,110.324,61.049a7.32,7.32,0,0,1-5.013,1.5,6.275,6.275,0,0,1-5.539-2.778q-1.891-2.778-1.891-8.064v-2.89Q97.926,43.6,99.906,40.9a6.612,6.612,0,0,1,5.674-2.7,6.766,6.766,0,0,1,4.822,1.555,8.045,8.045,0,0,1,2.048,5.069h5.64a12.2,12.2,0,0,0-3.827-8.269,12.6,12.6,0,0,0-8.683-2.921,13.08,13.08,0,0,0-7.061,1.9,12.312,12.312,0,0,0-4.689,5.416A19.074,19.074,0,0,0,92.2,49.076V52.12a18.939,18.939,0,0,0,1.678,7.9,12.115,12.115,0,0,0,4.577,5.248,12.7,12.7,0,0,0,6.859,1.846,13.125,13.125,0,0,0,8.93-2.921,11.772,11.772,0,0,0,3.849-8.135h-5.64ZM140.9,66.667h6.064V66.376l-7.318-13.569a10.041,10.041,0,0,0,4.4-3.393,9.172,9.172,0,0,0,1.578-5.476q0-4.793-3.066-7.324t-8.706-2.531H122.387V66.667h5.662V54.134h6.311ZM128.049,38.648h5.975a6.324,6.324,0,0,1,4.442,1.477,5.36,5.36,0,0,1,1.489,4.051,5.032,5.032,0,0,1-1.612,3.95,6.471,6.471,0,0,1-4.476,1.444h-5.818V38.648Zm29.474-4.565h-5.64V66.667h5.64V34.082Zm29.429,0H161.1v4.566h10.071V66.667h5.617V38.648h10.161V34.082Zm11.592,0h-5.639V66.667h5.639V34.082ZM224.3,56.059q-0.447,3.491-2.126,4.991a7.32,7.32,0,0,1-5.013,1.5,6.275,6.275,0,0,1-5.539-2.778q-1.892-2.778-1.891-8.064v-2.89q0.045-5.219,2.025-7.919a6.613,6.613,0,0,1,5.674-2.7,6.766,6.766,0,0,1,4.822,1.555,8.045,8.045,0,0,1,2.048,5.069h5.64a12.2,12.2,0,0,0-3.827-8.269,12.6,12.6,0,0,0-8.683-2.921,13.079,13.079,0,0,0-7.061,1.9,12.311,12.311,0,0,0-4.689,5.416,19.078,19.078,0,0,0-1.633,8.124V52.12a18.929,18.929,0,0,0,1.678,7.9,12.115,12.115,0,0,0,4.577,5.248,12.705,12.705,0,0,0,6.859,1.846,13.125,13.125,0,0,0,8.93-2.921,11.772,11.772,0,0,0,3.849-8.135H224.3Zm30.839,10.608h5.908L248.719,34.082h-5.08L231.33,66.667h5.886l2.641-7.587h12.622ZM246.168,41l4.722,13.517h-9.444Zm22.894-6.915H263.4V66.667h20.455V62.146H269.062V34.082Z" transform="translate(-71 -15)"/>
</svg>
