<svg id="high" xmlns="http://www.w3.org/2000/svg" width="251" height="100" viewBox="0 0 251 100">
  <defs>
    <style>
      .cls-1 {
        fill: #f15c4b;
      }

      .cls-2 {
        fill: #f6f9fe;
        fill-rule: evenodd;
      }
    </style>
  </defs>
  <rect id="Rounded_Rectangle_1_copy" data-name="Rounded Rectangle 1 copy" class="cls-1" width="251" height="100" rx="12.639" ry="12.639"/>
  <path id="high-2" data-name="high" class="cls-2" d="M160.443,34.082H154.8V47.644H140.234V34.082h-5.662V66.667h5.662V52.21H154.8V66.667h5.64V34.082Zm13.428,0h-5.64V66.667h5.64V34.082Zm31.51,15.867H193.028v4.3h6.714v6.378q-1.836,1.969-6.177,1.969a7.344,7.344,0,0,1-6.188-2.918q-2.228-2.918-2.227-8.195v-2.5q0.067-5.3,2.048-8.038a6.689,6.689,0,0,1,5.785-2.739q5.886,0,6.826,5.886h5.55a11.625,11.625,0,0,0-3.849-7.754q-3.2-2.7-8.639-2.7-6.333,0-9.869,4.151t-3.536,11.537v2.551a18.589,18.589,0,0,0,1.779,8.068,12.373,12.373,0,0,0,4.867,5.315,14.024,14.024,0,0,0,7.251,1.858,20,20,0,0,0,7.117-1.186,10.824,10.824,0,0,0,4.9-3.491V49.949ZM239.6,34.082h-5.64V47.644H219.391V34.082h-5.662V66.667h5.662V52.21H233.96V66.667h5.64V34.082Z" transform="translate(-62)"/>
</svg>
