<svg id="info" xmlns="http://www.w3.org/2000/svg" width="251" height="100" viewBox="0 0 251 100">
  <defs>
    <style>
      .cls-1 {
        fill: #4566cd;
      }

      .cls-2 {
        fill: #f6f9fe;
        fill-rule: evenodd;
      }
    </style>
  </defs>
  <rect id="Rounded_Rectangle_1_copy" data-name="Rounded Rectangle 1 copy" class="cls-1" width="251" height="100" rx="12.639" ry="12.639"/>
  <path id="info-2" data-name="info" class="cls-2" d="M144.71,34.082h-5.639V66.667h5.639V34.082Zm32.384,0h-5.618V57.29L156.907,34.082h-5.662V66.667h5.662V43.549l14.524,23.118h5.663V34.082Zm26.251,14.256H190.23v-9.69h15.039V34.082h-20.7V66.667h5.662V52.859h13.115V48.338Zm32.226,1.074a19.778,19.778,0,0,0-1.7-8.359,12.54,12.54,0,0,0-4.755-5.505,13.914,13.914,0,0,0-14.122.022,12.708,12.708,0,0,0-4.767,5.584,19.827,19.827,0,0,0-1.689,8.415V51.4a19.343,19.343,0,0,0,1.712,8.258,12.7,12.7,0,0,0,4.789,5.516,13.885,13.885,0,0,0,14.144,0,12.522,12.522,0,0,0,4.733-5.55,19.992,19.992,0,0,0,1.656-8.4V49.412Zm-5.662,1.813q0,5.505-2.025,8.37a6.66,6.66,0,0,1-5.785,2.865,6.738,6.738,0,0,1-5.808-2.932q-2.093-2.932-2.092-8.3v-1.88q0.045-5.259,2.115-8.135a7.226,7.226,0,0,1,11.548.011q2.048,2.887,2.047,8.3v1.7Z" transform="translate(-62)"/>
</svg>
