<svg id="low" xmlns="http://www.w3.org/2000/svg" width="251" height="100" viewBox="0 0 251 100">
  <defs>
    <style>
      .cls-1 {
        fill: #5e4c99;
      }

      .cls-2 {
        fill: #f6f9fe;
        fill-rule: evenodd;
      }
    </style>
  </defs>
  <rect id="Rounded_Rectangle_1_copy" data-name="Rounded Rectangle 1 copy" class="cls-1" width="251" height="100" rx="12.639" ry="12.639"/>
  <path id="low-2" data-name="low" class="cls-2" d="M147.194,34.082h-5.662V66.667h20.455V62.146H147.194V34.082ZM191.1,49.412a19.778,19.778,0,0,0-1.7-8.359,12.54,12.54,0,0,0-4.755-5.505,13.914,13.914,0,0,0-14.122.022,12.708,12.708,0,0,0-4.767,5.584,19.827,19.827,0,0,0-1.689,8.415V51.4a19.343,19.343,0,0,0,1.712,8.258,12.7,12.7,0,0,0,4.789,5.516,13.885,13.885,0,0,0,14.144,0,12.522,12.522,0,0,0,4.733-5.55,19.992,19.992,0,0,0,1.656-8.4V49.412Zm-5.662,1.813q0,5.505-2.025,8.37a6.66,6.66,0,0,1-5.785,2.865,6.738,6.738,0,0,1-5.808-2.932q-2.093-2.932-2.092-8.3v-1.88q0.043-5.259,2.114-8.135a7.226,7.226,0,0,1,11.548.011q2.049,2.887,2.048,8.3v1.7Zm32.383-17.143H213.08l-6.222,24.483L201.8,34.082h-5.618l7.52,32.585h5.438l6.333-23.79,6.2,23.79h5.415l7.52-32.585h-5.617L223.979,58.61Z" transform="translate(-62)"/>
</svg>
