<svg id="medium" xmlns="http://www.w3.org/2000/svg" width="233" height="71" viewBox="0 0 233 71">
  <defs>
    <style>
      .cls-1 {
        fill: #f79559;
      }

      .cls-2 {
        fill: #f6f9fe;
        fill-rule: evenodd;
      }
    </style>
  </defs>
  <rect id="Rounded_Rectangle_1_copy" data-name="Rounded Rectangle 1 copy" class="cls-1" width="233" height="71" rx="12.639" ry="12.639"/>
  <path id="medium-2" data-name="medium" class="cls-2" d="M101.227,34.082V66.667h5.639V55.925l-0.559-14.345,9.6,25.088h4.05l9.624-25.11-0.56,14.368V66.667h5.64V34.082h-7.318l-9.377,24.976-9.4-24.976h-7.34Zm60.716,13.562H148.56v-9h15.486V34.082H142.9V66.667H164.2V62.146H148.56V52.12h13.383V47.644Zm15.33,19.023a15.789,15.789,0,0,0,7.821-1.9,12.959,12.959,0,0,0,5.259-5.416A17.259,17.259,0,0,0,192.2,51.2V49.569a17.339,17.339,0,0,0-1.835-8.1,13.132,13.132,0,0,0-5.181-5.461,15.1,15.1,0,0,0-7.665-1.925H167.9V66.667h9.378Zm0.246-28.019a8.172,8.172,0,0,1,6.691,2.8q2.306,2.8,2.3,8.1v1.813q-0.045,5.215-2.428,8a8.5,8.5,0,0,1-6.837,2.786h-3.692v-23.5h3.961Zm25.512-4.565h-5.639V66.667h5.639V34.082Zm24.73,0V55.7q0,6.893-6.535,6.893a6.461,6.461,0,0,1-4.879-1.723,6.924,6.924,0,0,1-1.656-4.991v-21.8h-5.639V55.835a10.634,10.634,0,0,0,3.289,8.292q3.289,2.988,8.885,2.988a12.621,12.621,0,0,0,8.851-3.032,10.58,10.58,0,0,0,3.323-8.224V34.082h-5.639Zm10.966,0V66.667h5.639V55.925l-0.559-14.345,9.6,25.088h4.05l9.624-25.11-0.56,14.368V66.667h5.64V34.082h-7.318l-9.377,24.976-9.4-24.976h-7.34Z" transform="translate(-71 -15)"/>
</svg>
