<?xml version="1.0" encoding="UTF-8" standalone="no"?> <!-- Created with Vectornator for iOS (http://vectornator.io/) --><!DOCTYPE svg PUBLIC "-//W3C//DTD SVG 1.1//EN" "http://www.w3.org/Graphics/SVG/1.1/DTD/svg11.dtd">
<svg style="fill-rule:evenodd;clip-rule:evenodd;stroke-linecap:round;stroke-linejoin:round;" xmlns:vectornator="http://vectornator.io" xmlns:xlink="http://www.w3.org/1999/xlink" xmlns="http://www.w3.org/2000/svg" xml:space="preserve" version="1.1" viewBox="0 0 132 40">
<metadata>
<vectornator:setting key="DimensionsVisible" value="1"/>
<vectornator:setting key="SnapToGrid" value="0"/>
<vectornator:setting key="SnapToPoints" value="0"/>
<vectornator:setting key="GuidesVisible" value="1"/>
<vectornator:setting key="RulersVisible" value="1"/>
<vectornator:setting key="CMYKEnabledKey" value="0"/>
<vectornator:setting key="SnapToEdges" value="0"/>
<vectornator:setting key="DisplayWhiteBackground" value="0"/>
<vectornator:setting key="SnapToGuides" value="1"/>
<vectornator:setting key="GridSpacing" value="36"/>
<vectornator:setting key="Units" value="Pixels"/>
<vectornator:setting key="DynamicGuides" value="0"/>
<vectornator:setting key="New" value="1"/>
</metadata>
<defs/>
<g id="Layer 1" vectornator:layerName="Layer 1">
<path d="M6.7758+0.250457L125.392+0.250457C129.06+0.250455+132.034+2.49181+132.034+5.25666L132.034+34.8534C132.034+37.6183+129.06+39.8596+125.392+39.8596L6.7758+39.8596C3.10765+39.8596+0.134027+37.6183+0.134026+34.8534L0.134026+5.25666C0.134026+2.49181+3.10765+0.250457+6.7758+0.250457Z" opacity="1" fill="#e95069"/>
<path stroke="#ffffff" stroke-width="1" d="M18.0497+23.1233C17.8603+24.5922+17.4131+25.642+16.7078+26.2728C15.8058+26.9674+14.6791+27.3045+13.5438+27.2195C12.1511+27.2913+10.8232+26.6253+10.0478+25.4661C9.25213+24.2972+8.85429+22.6007+8.85429+20.3764L8.85429+18.5524C8.87323+16.3572+9.29926+14.6916+10.1324+13.5555C10.9627+12.4203+12.309+11.7796+13.7136+11.8513C14.8169+11.772+15.908+12.1238+16.7571+12.8328C17.5482+13.7157+18.0055+14.8475+18.0497+16.0322L21.6094+16.0322C21.5085+14.0458+20.6429+12.1755+19.194+10.8131C17.6632+9.53269+15.707+8.87461+13.7136+8.96947C12.1443+8.9374+10.5983+9.35339+9.25697+10.1687C7.95345+10.9896+6.92333+12.1794+6.29746+13.587C5.58276+15.2006+5.23154+16.9515+5.26866+18.7159L5.26866+20.6371C5.25905+22.356+5.62029+24.0567+6.32775+25.6233C6.94579+26.9863+7.95023+28.138+9.21658+28.9356C10.5194+29.7279+12.0212+30.132+13.5457+30.1007C15.5876+30.2028+17.5951+29.5461+19.182+28.2571C20.6398+26.9349+21.5135+25.0883+21.6113+23.1226L18.0516+23.1226L18.0497+23.1233ZM36.0062+29.8186L39.8336+29.8186L39.8336+29.6349L35.2147+21.0707C36.3235+20.6323+37.286+19.89+37.9919+18.9292C38.6824+17.9121+39.0312+16.7016+38.9878+15.473C38.9878+13.4562+38.3428+11.9153+37.0527+10.8503C35.7626+9.78535+33.931+9.25286+31.5578+9.25286L24.3215+9.25286L24.3215+29.8186L27.8952+29.8186L27.8952+21.9083L31.8784+21.9083L36.0062+29.8186ZM27.8952+12.1341L31.6664+12.1341C32.6857+12.0748+33.6891+12.4084+34.47+13.0663C35.1277+13.7493+35.4686+14.6768+35.4098+15.6232C35.4571+16.564+35.0844+17.4772+34.3923+18.1163C33.5983+18.7636+32.5899+19.0889+31.5673+19.0277L27.8952+19.0277C27.8952+19.0277+27.8952+12.1341+27.8952+12.1341ZM46.498+9.25286L42.9383+9.25286L42.9383+29.8186L46.498+29.8186L46.498+9.25223L46.498+9.25286ZM65.0725+9.25286L48.7557+9.25286L48.7557+12.1347L55.1121+12.1347L55.1121+29.8186L58.6573+29.8186L58.6573+12.1341L65.0706+12.1341L65.0706+9.25223L65.0725+9.25286ZM72.3889+9.25286L68.8298+9.25286L68.8298+29.8186L72.3889+29.8186L72.3889+9.25223L72.3889+9.25286ZM88.6451+23.1233C88.457+24.5922+88.0097+25.6422+87.3032+26.2734C86.4012+26.968+85.2745+27.3052+84.1392+27.2201C82.7465+27.292+81.4186+26.626+80.6432+25.4668C79.8471+24.2978+79.4493+22.6013+79.4497+20.3771L79.4497+18.553C79.4686+16.357+79.8947+14.6909+80.7278+13.5549C81.5582+12.4197+82.9044+11.7791+84.309+11.8507C85.4123+11.7714+86.5034+12.1232+87.3525+12.8322C88.1436+13.715+88.6009+14.8469+88.6451+16.0315L92.2048+16.0315C92.1039+14.0452+91.2383+12.1749+89.7894+10.8125C88.2586+9.53205+86.3024+8.87397+84.309+8.96883C82.7397+8.93673+81.1937+9.35272+79.8524+10.168C78.5488+10.9889+77.5187+12.1788+76.8929+13.5864C76.1778+15.1994+75.8259+16.9499+75.8622+18.714L75.8622+20.6371C75.8524+22.356+76.2136+24.0568+76.9213+25.6233C77.5393+26.9863+78.5437+28.138+79.8101+28.9356C81.113+29.7277+82.6147+30.1319+84.1392+30.1007C86.1811+30.2028+88.1886+29.5461+89.7755+28.2571C91.2336+26.9351+92.1074+25.0884+92.2048+23.1226L88.6451+23.1226L88.6451+23.1233ZM108.109+29.8186L111.838+29.8186L104.057+9.25223L100.851+9.25223L93.0821+29.8186L96.7972+29.8186L98.4641+25.03L106.431+25.03L108.109+29.8186ZM102.447+13.6186L105.428+22.15L99.467+22.15L102.447+13.6186ZM116.897+9.25412L113.323+9.25412L113.323+29.8186L126.234+29.8186L126.234+26.9651L116.897+26.9651L116.897+9.25223L116.897+9.25412Z" fill="#f6f9fe" stroke-linecap="butt" opacity="1" stroke-linejoin="round"/>
</g>
</svg>
